<svg width="1776" height="1049" viewBox="0 0 1776 1049" xmlns="http://www.w3.org/2000/svg"><path d="M1587.49 964.59c0 8.95-7.32 16.27-16.27 16.27H208.26c-8.95 0-16.26-7.32-16.26-16.27V16.27C192 7.32 199.32 0 208.26 0h1362.96c8.95 0 16.27 7.32 16.27 16.27v948.32zM1108.354 988h667.366v48c0 2.99-2.4 5.91-5.32 6.49l-25.51 5.1c-2.92.58-7.76 1.06-10.74 1.06H32.53c-2.98 0-7.78-.63-10.66-1.4l-16.63-4.43c-2.88-.77-5.24-3.84-5.24-6.82v-48h666.906l17.394 27.33c3.72 5.88 12.46 10.69 19.42 10.69h367.82c6.96 0 15.7-4.81 19.42-10.69l17.394-27.33z" fill-opacity=".2" fill-rule="evenodd"/></svg>